<svg xmlns="http://www.w3.org/2000/svg" width="178" height="179" viewBox="0 0 178 179">
    <g fill="none" fill-rule="evenodd">
        <g fill="#CDCDCD">
            <g transform="scale(-1,1) translate(-178,0)">
                <path d="M103.838 120.429c.752-20.89-4.581-41.836-15.232-59.827C78.378 43.324 63.358 29.24 45.61 19.88 35.803 14.71 25.225 11.04 14.32 9.033c-.641-.118-1.568.085-2.047.549-.417.404-.373.829.252.945C31.793 14.073 49.952 23 64.634 35.959c15.204 13.42 26.26 31.07 31.962 50.517 3.26 11.124 4.77 22.76 4.353 34.348-.04 1.106 2.857.5 2.889-.395" transform="translate(-548 -472) scale(1 -1) rotate(-39 -537.302 -1062) rotate(-13 57.954 65.21)"/>
                <path d="M114.802 114.215c.495.479 2.905-.08 2.807-.907-.435-3.71.292-7.427 2.063-10.714.279-.52-1.011-.43-1.192-.401-.563.089-1.385.31-1.68.859-1.816 3.37-2.534 7.23-2.088 11.032-.098-1.707-.16-2.981.004-3.914-3.768-3.65-5.21-3.761-9.831-6.244-.56-.302-1.32-.122-1.884.096-.151.058-1.341.669-.832.942 4.62 2.484 8.866 5.6 12.633 9.25z" transform="translate(-548 -472) scale(1 -1) rotate(-39 -537.302 -1062) rotate(-13 110.877 108.28)"/>
            </g>
        </g>
    </g>
</svg>
